# xmcd CD database file
#
# Track frame offsets:
#	150
#	9847
#	20515
#	30620
#	48120
#	59807
#	73115
#	86105
#	94122
#	103915
#	113862
#	125180
#	135772
#	144495
#	160032
#	171712
#	182490
#	191687
#	205922
#	215997
#
# Disc length: 3050 seconds
#
# Revision: 1
# Processed by: cddbd v1.5.2PL0 Copyright (c) Steve Scherf et al.
# Submitted via: CDex 1.51
#
DISCID=290be814
DTITLE=The Ventures - V-Gold BLEND
DYEAR=2004
DGENRE=Rock
TTITLE0=Walk Don't Run
TTITLE1=Pipeline
TTITLE2=Slaughter On 10th Avenue
TTITLE3=Wipe Out
TTITLE4=Yellow Jacket
TTITLE5=Apache
TTITLE6=Secret Agent Man
TTITLE7=Hawaii Five-O
TTITLE8=Stranger In Midosuji
TTITLE9=Reflections In A Palace Lake
TTITLE10=Kyoto Doll
TTITLE11=Paint It Black
TTITLE12=Driving Guitars
TTITLE13=Tequila
TTITLE14=Telstar
TTITLE15=Journey To The Star
TTITLE16=Yozora No Hoshi
TTITLE17=House Of The Rising Sun
TTITLE18=Diamond Head
TTITLE19=Caravan
EXTD=YEAR: 2004
EXTT0=
EXTT1=
EXTT2=
EXTT3=
EXTT4=
EXTT5=
EXTT6=
EXTT7=
EXTT8=
EXTT9=
EXTT10=
EXTT11=
EXTT12=
EXTT13=
EXTT14=
EXTT15=
EXTT16=
EXTT17=
EXTT18=
EXTT19=
PLAYORDER=
